<?xml version="1.0" encoding="UTF-8"?>
<svg id="Layer_1" data-name="Layer 1" xmlns="http://www.w3.org/2000/svg" viewBox="0 0 453.54 453.54">
  <path d="M372.15,334.26c-33.66,46.65-88.33,74.21-145.59,74.12-57.39-.09-111.67-27.9-145.17-74.2-54.23-74.96-42.67-177.95,25.12-239.03,68.13-61.39,171.95-61.56,240.24-.26,67.9,60.95,79.77,164,25.39,239.37ZM355.73,316.08c44.57-66.21,32.15-153.41-26.26-204.61-58.78-51.53-146.88-51.34-205.52.33-58.36,51.42-70.19,138.79-25.84,204.28,70.56-72.49,187-72.48,257.62-.01Z"/>
  <path d="M220.16,97.22c40.04-3.78,74.54,25.76,78.27,64.75,3.77,39.38-25.35,74.55-64.66,78.26s-74.23-24.91-78.32-64.09c-4.09-39.24,24.48-75.13,64.71-78.93Z"/>
</svg>