<?xml version="1.0" encoding="UTF-8"?>
<svg id="Layer_1" data-name="Layer 1" xmlns="http://www.w3.org/2000/svg" viewBox="0 0 453.54 453.54">
  <path d="M129.47,342.83c52.31,49.25,134.47,46.7,183.66-5.77,38.14-40.67,46.42-101.67,19.01-151.4l26.68-26.71c45.8,72.14,29.33,166.31-36.13,219.06-65.63,52.89-161.19,47.87-221.11-11.2-60.19-59.34-66.26-155.19-13.82-221.56s146.03-83.33,218.68-38.2l-26.67,26.78c-49.23-26.35-109.28-18.18-149.67,19.36-55.07,51.19-55.43,138.02-.61,189.63Z"/>
  <path d="M227.59,186.09c-37.3-5.21-70.32,22.68-71.93,59.47s29.7,67.91,66.96,65.42c36.78-2.46,64.08-36.31,57.67-73.51l29.03-28.96c19.38,44.12,4.14,94.75-34.55,121.52-39.17,27.11-92.04,22.39-125.97-10.97-33.71-33.14-39.48-85.65-13.36-125.24,26-39.41,76.4-55.79,121.25-37.12l-29.1,29.38Z"/>
  <path d="M344.01,140.45l-95.03,95.02c6.17,15.31.45,31.69-12.29,40.18-13.02,8.68-30.24,6.84-41.35-4.02-11.11-10.86-13.16-28.08-4.71-41.27,8.38-13.07,24.97-19.05,40.49-12.76l94.61-94.7-1.88-15.97,41.77-41.85,4.36,31.4,31.48,4.33-41.62,41.73-15.82-2.1Z"/>
</svg>